<?xml version="1.0" encoding="UTF-8"?>
<svg width="92px" height="93px" viewBox="0 0 92 93" version="1.1" xmlns="http://www.w3.org/2000/svg" xmlns:xlink="http://www.w3.org/1999/xlink">
    <title>Path</title>
    <g id="Page-1" stroke="none" stroke-width="1" fill="none" fill-rule="evenodd">
        <g id="MacBook-Pro-14&quot;" transform="translate(-798.296752, -281.791160)" fill="#582049" fill-rule="nonzero">
            <g id="Group-4" transform="translate(72.183584, 36.000000)">
                <path d="M817.032654,246.490223 C817.032654,246.490223 817.032654,246.490223 816.829439,246.490223 C816.829439,246.490223 816.626225,246.317423 816.626225,246.317423 C815.610155,245.453423 814.187656,245.799023 812.968371,246.317423 C803.62052,246.144623 794.272669,248.563823 786.550532,253.229424 C784.721604,254.266224 782.486249,255.994225 782.486249,258.067825 C782.486249,259.968625 784.924818,259.795825 786.144103,258.931825 C792.443742,255.303025 799.759451,253.229424 807.278375,253.229424 C783.502319,271.373427 765.822689,294.35583 746.110916,315.783034 C740.42092,322.003835 734.52771,328.051836 728.228071,333.754236 C727.212001,334.791037 725.179859,337.037437 726.602358,338.419837 C728.024857,339.629437 731.073069,337.555837 731.885926,336.864637 C754.64591,316.128634 771.919113,291.59103 794.069455,270.509427 C798.74338,266.016626 803.823734,261.696625 809.107302,257.549425 C809.310516,259.623025 809.310516,261.696625 809.107302,263.770226 C808.904088,270.163827 807.684803,276.211828 805.449447,282.259829 C804.839805,283.987829 806.05909,284.851829 808.091231,284.333429 C810.326587,283.642229 812.358728,281.741429 812.968371,280.013428 C814.797298,274.656627 816.016583,269.299827 816.626225,263.770226 C816.829439,261.178225 817.032654,258.413425 817.032654,255.821425 C817.032654,254.266224 816.829439,252.538224 816.626225,250.983024 C816.626225,250.810224 816.829439,250.810224 816.829439,250.464624 C817.439082,249.773424 819.268009,246.663023 817.032654,246.490223 Z" id="Path" transform="translate(772.113168, 292.291160) scale(1, -1) translate(-772.113168, -292.291160) "></path>
            </g>
        </g>
    </g>
</svg>