<?xml version="1.0" encoding="UTF-8"?>
<svg width="95.3236089px" height="111.41768px" viewBox="0 0 95.3236089 111.41768" version="1.1" xmlns="http://www.w3.org/2000/svg" xmlns:xlink="http://www.w3.org/1999/xlink">
    <title>Path</title>
    <g id="Page-1" stroke="none" stroke-width="1" fill="none" fill-rule="evenodd">
        <g id="MacBook-Pro-14&quot;" transform="translate(-625.838196, -272.582320)" fill="#582049" fill-rule="nonzero">
            <g id="Group-4" transform="translate(72.183584, 36.000000)">
                <path d="M574.493631,300.009708 C572.606478,300.198423 570.153179,302.274292 569.398318,304.161444 C569.020888,305.293736 568.454742,306.237313 568.077311,307.369604 C567.888596,307.55832 567.888596,307.93575 567.699881,308.313181 C563.548144,319.069953 560.90613,330.204155 559.585123,341.715788 C559.207692,344.546517 562.981998,342.84808 563.925575,342.093218 C570.341895,336.43176 578.079222,332.846169 586.382695,331.336447 C588.458563,330.959016 590.345716,329.260578 591.478007,327.18471 C592.044153,326.052419 592.421584,323.410404 590.345716,323.787835 C582.985819,325.108842 575.814638,327.750856 569.587033,331.713877 C587.514986,309.256757 605.82037,287.365783 624.503184,265.663525 C629.975927,259.247205 635.637386,253.0196 641.11013,246.791995 C642.053706,245.659703 643.940859,243.206405 642.619852,241.696682 C641.298845,240.375675 638.468116,242.640259 637.713254,243.39512 C617.709433,265.85224 598.271758,288.68679 579.400229,311.898771 C575.814638,316.239223 572.417763,320.579675 568.832172,324.920127 C570.341895,317.371515 572.606478,310.011619 575.625923,303.029153 C576.192069,302.085576 576.569499,299.820993 574.493631,300.009708 Z" id="Path" transform="translate(601.316416, 292.291160) rotate(7.000000) translate(-601.316416, -292.291160) "></path>
            </g>
        </g>
    </g>
</svg>