<?xml version="1.0" encoding="UTF-8"?>
<svg width="122.48055px" height="101.110794px" viewBox="0 0 122.48055 101.110794" version="1.1" xmlns="http://www.w3.org/2000/svg" xmlns:xlink="http://www.w3.org/1999/xlink">
    <title>Group 5</title>
    <g id="Page-1" stroke="none" stroke-width="1" fill="none" fill-rule="evenodd">
        <g id="MacBook-Pro-14&quot;" transform="translate(-943.259725, -529.992225)" fill="#C6468F" fill-rule="nonzero">
            <g id="Group-4" transform="translate(72.183584, 36.000000)">
                <g id="Group-5" transform="translate(871.076141, 493.992225)">
                    <path d="M103.716944,19.9276891 C106.524098,21.9961182 108.444782,25.2465067 109.035761,28.7923851 C111.39968,28.6446402 113.763599,29.2356199 115.832028,30.4175794 C118.786927,32.0427737 120.855356,34.9976724 121.889571,38.100316 C122.332805,39.2822755 122.48055,40.6119799 122.48055,41.9416843 L122.48055,77.2527235 C122.332805,79.1734077 122.037316,81.0940918 121.150846,82.867031 C119.821142,85.9696746 117.309478,88.4813385 114.059089,89.8110429 C113.024875,90.2542777 111.842915,90.5497676 110.808701,90.6975125 C106.890195,91.2474783 95.9024772,92.9489898 84.4241565,94.7453023 L82.9566808,94.9750524 L81.4869162,95.2053438 C69.482773,97.0869384 57.5539296,98.9738211 53.1550604,99.6685216 L52.8926864,99.7099535 C52.8926864,99.7099535 46.3998925,100.411877 39.4135174,100.82199 L38.6633618,100.864769 C38.287613,100.885554 37.9110625,100.905401 37.5346327,100.924155 L36.7822074,100.960163 C33.5247636,101.109492 30.3225727,101.169142 27.7760476,101.039658 C26.1508533,100.891913 24.3779141,100.891913 22.7527199,100.448678 C19.9455661,99.7099535 17.4339022,97.7892694 15.808708,95.4253504 C14.6267485,93.8001562 13.8880238,91.7317271 13.444789,89.8110429 C12.1150846,89.663298 10.9331251,89.663298 9.60342072,89.3678081 C6.20528723,88.4813385 3.39813349,86.1174196 1.77293921,83.014776 C0.738724671,81.0940918 0.147744934,78.7301729 0,76.5139989 L0,43.5668785 C0,42.8281539 0.147744934,41.9416843 0.147744934,41.2029596 C0.738724671,37.9525711 2.51166388,34.8499274 5.02332776,32.6337534 C7.09175684,31.0085591 9.89891059,29.9743446 12.5583194,29.9743446 C18.9113516,30.1220895 33.5381,28.5035689 39.8911322,27.6170993 C41.1447081,27.4604023 42.9476392,27.1603875 45.117952,26.7636419 L45.1198221,33.5795083 C40.0150309,34.5138472 34.8883535,35.2964112 29.6967318,35.884142 C24.3779141,36.4751217 19.2068414,36.7706116 13.8880238,36.7706116 C13.1492991,36.7706116 12.5583194,36.7706116 11.8195947,36.9183565 C9.75116565,37.5093362 8.12597138,39.2822755 7.53499164,41.3507045 C7.09175684,42.8281539 7.23950177,44.3056032 7.23950177,45.7830526 L7.23950177,74.7410597 C7.23950177,75.6275293 7.23950177,76.5139989 7.38724671,77.4004685 C7.68273658,79.1734077 8.71695111,80.9463469 10.3421454,81.9805614 C11.3763599,82.5715412 12.5583194,82.867031 13.7402789,82.867031 L13.7402789,54.6477486 C13.7402789,50.8063803 15.3654732,46.965012 18.3203718,44.3056032 C20.5365458,42.3849191 23.3436996,41.2029596 26.2985983,41.2029596 C32.3561406,41.3507045 38.4136829,40.9074697 44.4712252,40.1687451 L45.119,40.0807747 L45.1192706,46.8794305 C43.0603159,47.188785 41.2723807,47.4244443 39.8911322,47.5559918 C35.3110393,47.9992266 30.5832014,48.2947164 26.0031084,48.1469715 C24.673404,48.1469715 23.3436996,48.7379512 22.3094851,49.6244208 C20.8320357,50.9541253 19.9455661,53.0225543 19.9455661,54.9432385 L19.9455661,86.4129094 C19.9455661,87.1516341 19.9455661,87.8903588 20.093311,88.4813385 C20.3888009,90.2542777 21.2752705,91.879472 22.6049749,92.9136866 C23.4914445,93.6524112 24.5256591,94.095646 25.7076185,94.095646 C30.2877115,94.3911359 35.0155494,94.3911359 39.5956423,94.243391 C44.4712252,93.9479011 48.1648485,93.5046663 52.8926864,92.9136866 C56.4283363,92.2897483 67.2182013,90.5923164 78.4544796,88.8440874 L79.560887,88.6720027 C79.9300094,88.6146106 80.2993717,88.5571999 80.668734,88.4998066 L82.10872,88.2761409 L82.6566258,88.1910807 L83.7503608,88.0213495 C94.6703707,86.3271571 105.000214,84.7370598 108.444782,84.1967354 C109.626741,84.0489905 110.956446,83.9012456 111.99066,83.3102658 C114.206834,82.1283064 115.536538,79.6166425 115.536538,77.2527235 L115.536538,44.4533482 C115.536538,42.9758988 115.684283,41.3507045 115.241049,40.0210001 C114.650069,37.8048261 112.729385,35.884142 110.513211,35.5886521 C109.478996,35.4409072 108.297037,35.5886521 107.262822,35.736397 C98.693616,36.7706116 90.2721548,38.3958059 81.7029486,40.0210001 C80.7177449,40.2365134 78.7317026,40.6509113 76.1204939,41.1799684 L76.119,34.2487747 L76.5991437,34.1453917 C85.1963226,32.3138429 93.8046018,30.7265006 102.534984,29.3833649 C102.239494,27.6104257 101.20528,26.1329763 99.8755755,25.0987618 C98.8413609,24.3600371 97.3639116,23.9168023 96.1819521,24.0645472 C91.0108794,24.655527 86.2830415,25.5419966 81.4074587,26.2807213 C79.6402441,26.5797883 77.8780326,26.8938647 76.1199035,27.2201884 L76.120359,20.5416864 C77.9853091,20.1761922 79.6321228,19.8647883 80.9642239,19.6321992 C85.6920618,18.7457296 90.5676446,18.0070049 95.2954825,17.5637701 C98.2503812,17.2682803 101.353025,18.1547499 103.716944,19.9276891 Z M44.766715,83.6057557 C46.0964195,83.7535006 46.9828891,85.3786949 46.5396543,86.5606544 C46.2441644,87.447124 45.3576948,88.0381037 44.4712252,88.0381037 C39.5956423,88.3335936 34.7200595,88.4813385 29.8444767,88.3335936 C28.5147723,88.3335936 27.4805577,86.8561443 27.7760476,85.5264398 C28.0715375,84.4922253 28.9580071,83.7535006 29.9922216,83.7535006 C34.1290798,84.0489905 38.5614278,84.0489905 42.8460309,83.7535006 C43.4370106,83.7535006 44.0279904,83.6057557 44.766715,83.6057557 Z M78.3048151,58.341372 C79.6345195,59.6710764 80.816479,61.4440156 81.4074587,63.2169548 C82.2939283,65.7286187 82.2939283,68.5357724 81.4074587,71.0474363 C80.5209891,73.85459 78.45256,76.3662539 75.7931512,77.8437033 C73.4292323,79.1734077 70.6220785,79.7643874 67.9626697,79.3211526 C64.2690464,78.8779178 60.8709129,76.6617438 59.0979737,73.4113552 C56.8817996,69.8654768 56.7340547,65.1376389 58.6547389,61.4440156 C60.4276781,58.0458821 64.1213014,55.5342182 68.1104146,54.9432385 C71.804038,54.5000037 75.6454063,55.8297081 78.3048151,58.341372 Z M68.5536494,59.3755865 C65.5987508,59.8188213 62.9393419,61.8872504 62.0528723,64.6944041 C61.4618926,66.4673433 61.4618926,68.5357724 62.2006173,70.3087116 C62.9393419,72.0816508 64.1213014,73.4113552 65.7464957,74.2978248 C67.223945,75.1842945 68.9968842,75.4797843 70.6220785,75.1842945 C72.2472728,75.0365495 73.7247221,74.2978248 74.9066816,73.2636103 C76.236386,72.0816508 77.1228556,70.4564566 77.5660904,68.8312623 C77.8615803,67.0583231 77.7138354,65.1376389 76.8273658,63.6601896 C76.0886411,62.0349953 74.7589367,60.8530358 73.1337424,59.9665662 C71.804038,59.3755865 70.1788437,59.0800966 68.5536494,59.3755865 Z M109.626741,43.4191336 C110.365466,44.4533482 110.069976,46.0785424 109.035761,46.6695222 C108.740272,46.965012 108.297037,46.965012 107.853802,46.965012 C103.125964,47.7037367 98.3981261,48.2947164 93.8180332,49.181186 C93.0793085,49.328931 92.3405838,49.181186 91.7496041,48.7379512 C91.1586244,48.2947164 90.8631345,47.4082468 91.0108794,46.6695222 C91.1586244,45.7830526 91.7496041,45.0443279 92.6360737,44.896583 C97.3639116,44.0101134 102.239494,43.4191336 107.115077,42.6804089 C108.001547,42.532664 109.035761,42.6804089 109.626741,43.4191336 Z M61.0783806,5.68434189e-14 C61.6693604,5.68434189e-14 62.2603401,0.295489868 62.7035749,0.738724671 C65.9539634,3.98911322 69.3520969,7.09175684 72.6024855,10.3421454 C73.6367,11.3763599 73.6367,13.1492991 72.4547405,14.0357687 C71.5682709,14.7744934 70.0908216,14.7744934 69.204352,13.8880238 C67.2836679,12.1150846 65.3629837,10.1944005 63.4422996,8.42146125 L63.4422996,42.5038855 C63.4422996,43.8335899 62.408085,44.8678045 61.2261256,45.0155494 C60.191911,45.0155494 59.1576965,44.4245697 58.7144617,43.3903551 C58.5667167,42.7993754 58.5667167,42.3561406 58.5667167,41.9129058 L58.5667167,8.42146125 C56.9415225,10.0466555 55.3163282,11.8195947 53.6911339,13.444789 C53.395644,13.7402789 53.1001542,14.1835137 52.8046643,14.3312586 C51.9181947,14.7744934 50.7362352,14.7744934 49.9975106,14.1835137 C48.963296,13.2970441 48.8155511,11.5241049 49.7020207,10.4898903 C52.6569194,7.38724671 55.759563,4.13685816 58.8622066,1.03421454 C59.3054414,0.443234802 59.8964211,5.68434189e-14 60.6351458,5.68434189e-14 Z" id="Combined-Shape"></path>
                </g>
            </g>
        </g>
    </g>
</svg>