<?xml version="1.0" encoding="UTF-8"?>
<svg width="122.48055px" height="102px" viewBox="0 0 122.48055 102" version="1.1" xmlns="http://www.w3.org/2000/svg" xmlns:xlink="http://www.w3.org/1999/xlink">
    <title>Combined Shape</title>
    <g id="Page-1" stroke="none" stroke-width="1" fill="none" fill-rule="evenodd">
        <g id="MacBook-Pro-14&quot;" transform="translate(-475.816201, -536.500000)" fill="#7097CF" fill-rule="nonzero">
            <g id="Group-4" transform="translate(72.183584, 36.000000)">
                <g id="Group" transform="translate(403.632617, 500.500000)">
                    <path d="M70.3265887,66.9844506 C71.5085481,67.1321955 72.5427627,68.1664101 72.5427627,69.4961145 L72.5427627,93.5785388 C74.4634468,91.8055995 76.3841309,89.8849154 78.3048151,88.1119762 C79.1912847,87.2255066 80.668734,87.2255066 81.5552036,87.9642313 C82.7371631,88.8507009 82.7371631,90.6236401 81.7029486,91.6578546 C78.45256,94.9082432 75.0544265,98.0108868 71.804038,101.261275 C71.3608032,101.70451 70.7698235,102 70.1788437,102 L69.7356089,102 C68.9968842,102 68.4059045,101.556765 67.9626697,100.965785 C64.8600261,97.8631418 61.7573825,94.6127533 58.8024838,91.5101097 C57.9160142,90.4758951 58.0637591,88.7029559 59.0979737,87.8164863 C59.8366983,87.2255066 61.0186578,87.2255066 61.9051274,87.6687414 C62.2006173,87.8164863 62.4961071,88.2597211 62.791597,88.555211 C64.4167913,90.1804053 66.0419856,91.9533445 67.6671798,93.5785388 L67.6671798,70.0870942 C67.6671798,69.6438594 67.6671798,69.2006246 67.8149248,68.6096449 C68.2581596,67.5754303 69.2923741,66.9844506 70.3265887,66.9844506 Z M103.716944,2.41991439 C106.524098,4.48834347 108.444782,7.73873202 109.035761,11.2846104 C111.39968,11.1368655 113.763599,11.7278452 115.832028,12.9098047 C118.786927,14.534999 120.855356,17.4898977 121.889571,20.5925413 C122.332805,21.7745008 122.48055,23.1042052 122.48055,24.4339096 L122.48055,59.7449488 C122.332805,61.665633 122.037316,63.5863171 121.150846,65.3592563 C119.821142,68.4619 117.309478,70.9735638 114.059089,72.3032682 C113.024875,72.746503 111.842915,73.0419929 110.808701,73.1897378 C102.387239,74.3716973 94.113523,75.8491467 85.6920618,77.1788511 C85.248827,75.5536568 85.3965719,73.9284625 85.3965719,72.3032682 C85.3965719,71.7122885 85.5443169,70.9735638 85.6920618,70.3825841 C93.2270534,69.0528797 100.90979,67.8709202 108.444782,66.6889607 C109.626741,66.5412158 110.956446,66.3934709 111.99066,65.8024911 C114.206834,64.6205317 115.536538,62.1088678 115.536538,59.7449488 L115.536538,26.9455735 C115.536538,25.4681241 115.684283,23.8429298 115.241049,22.5132254 C114.650069,20.2970514 112.729385,18.3763673 110.513211,18.0808774 C109.478996,17.9331325 108.297037,18.0808774 107.262822,18.2286223 C98.693616,19.2628369 90.2721548,20.8880312 81.7029486,22.5132254 C76.9751107,23.54744 72.2472728,24.4339096 67.5194349,25.6158691 C58.359249,27.5365532 49.1990631,29.1617475 39.8911322,30.0482171 C35.3110393,30.4914519 30.5832014,30.7869417 26.0031084,30.6391968 C24.673404,30.6391968 23.3436996,31.2301765 22.3094851,32.1166462 C20.8320357,33.4463506 19.9455661,35.5147796 19.9455661,37.4354638 L19.9455661,68.9051348 C19.9455661,69.6438594 19.9455661,70.3825841 20.093311,70.9735638 C20.3888009,72.746503 21.2752705,74.3716973 22.6049749,75.4059119 C23.4914445,76.1446365 24.5256591,76.5878713 25.7076185,76.5878713 C30.2877115,76.8833612 35.0155494,76.8833612 39.5956423,76.7356163 C44.4712252,76.4401264 49.346808,75.9968916 54.0746459,75.4059119 C54.2223908,77.6220859 54.2223908,79.9860048 53.926901,82.2021788 C45.2099498,83.2363934 36.4929987,83.975118 27.7760476,83.5318832 C26.1508533,83.3841383 24.3779141,83.3841383 22.7527199,82.9409035 C19.9455661,82.2021788 17.4339022,80.2814947 15.808708,77.9175757 C14.6267485,76.2923815 13.8880238,74.2239524 13.444789,72.3032682 C12.1150846,72.1555233 10.9331251,72.1555233 9.60342072,71.8600334 C6.20528723,70.9735638 3.39813349,68.6096449 1.77293921,65.5070013 C0.738724671,63.5863171 0.147744934,61.2223982 0,59.0062242 L0,26.0591039 C0,25.3203792 0.147744934,24.4339096 0.147744934,23.6951849 C0.738724671,20.4447964 2.51166388,17.3421527 5.02332776,15.1259787 C7.09175684,13.5007845 9.89891059,12.4665699 12.5583194,12.4665699 C18.9113516,12.6143148 25.4121287,12.17108 31.7651608,11.2846104 C38.8569177,10.3981408 45.9486745,9.06843643 52.8926864,7.59098709 C62.4961071,5.67030294 71.6562931,3.7496188 80.9642239,2.12442452 C85.6920618,1.23795492 90.5676446,0.499230247 95.2954825,0.0559954442 C98.2503812,-0.239494424 101.353025,0.646975181 103.716944,2.41991439 Z M44.766715,66.097981 C46.0964195,66.2457259 46.9828891,67.8709202 46.5396543,69.0528797 C46.2441644,69.9393493 45.3576948,70.530329 44.4712252,70.530329 C39.5956423,70.8258189 34.7200595,70.9735638 29.8444767,70.8258189 C28.5147723,70.8258189 27.4805577,69.3483696 27.7760476,68.0186651 C28.0715375,66.9844506 28.9580071,66.2457259 29.9922216,66.2457259 C34.1290798,66.5412158 38.5614278,66.5412158 42.8460309,66.2457259 C43.4370106,66.2457259 44.0279904,66.097981 44.766715,66.097981 Z M96.1819521,6.55677255 C91.0108794,7.14775228 86.2830415,8.03422189 81.4074587,8.77294656 C71.804038,10.3981408 62.3483622,12.4665699 52.8926864,14.534999 C45.2099498,16.1601933 37.5272133,17.4898977 29.6967318,18.3763673 C24.3779141,18.967347 19.2068414,19.2628369 13.8880238,19.2628369 C13.1492991,19.2628369 12.5583194,19.2628369 11.8195947,19.4105818 C9.75116565,20.0015616 8.12597138,21.7745008 7.53499164,23.8429298 C7.09175684,25.3203792 7.23950177,26.7978285 7.23950177,28.2752779 L7.23950177,57.233285 C7.23950177,58.1197546 7.23950177,59.0062242 7.38724671,59.8926938 C7.68273658,61.665633 8.71695111,63.4385722 10.3421454,64.4727867 C11.3763599,65.0637665 12.5583194,65.3592563 13.7402789,65.3592563 L13.7402789,37.1399739 C13.7402789,33.2986056 15.3654732,29.4572373 18.3203718,26.7978285 C20.5365458,24.8771444 23.3436996,23.6951849 26.2985983,23.6951849 C32.3561406,23.8429298 38.4136829,23.399695 44.4712252,22.6609704 C50.0855327,21.9222457 55.5520952,21.0357761 61.0186578,20.0015616 C65.3032609,19.1150919 69.7356089,18.0808774 74.020212,17.1944078 C83.4758878,15.1259787 92.9315636,13.3530395 102.534984,11.8755902 C102.239494,10.102651 101.20528,8.62520162 99.8755755,7.59098709 C98.8413609,6.85226241 97.3639116,6.40902761 96.1819521,6.55677255 Z M78.3048151,40.8335973 C79.6345195,42.1633017 80.816479,43.9362409 81.4074587,45.7091801 C82.2939283,48.220844 82.2939283,51.0279977 81.4074587,53.5396616 C80.5209891,56.3468154 78.45256,58.8584792 75.7931512,60.3359286 C73.4292323,61.665633 70.6220785,62.2566127 67.9626697,61.8133779 C64.2690464,61.3701431 60.8709129,59.1539691 59.0979737,55.9035805 C56.8817996,52.3577021 56.7340547,47.6298642 58.6547389,43.9362409 C60.4276781,40.5381074 64.1213014,38.0264435 68.1104146,37.4354638 C71.804038,36.992229 75.6454063,38.3219334 78.3048151,40.8335973 Z M68.5536494,41.8678118 C65.5987508,42.3110466 62.9393419,44.3794757 62.0528723,47.1866294 C61.4618926,48.9595686 61.4618926,51.0279977 62.2006173,52.8009369 C62.9393419,54.5738761 64.1213014,55.9035805 65.7464957,56.7900502 C67.223945,57.6765198 68.9968842,57.9720096 70.6220785,57.6765198 C72.2472728,57.5287748 73.7247221,56.7900502 74.9066816,55.7558356 C76.236386,54.5738761 77.1228556,52.9486819 77.5660904,51.3234876 C77.8615803,49.5505484 77.7138354,47.6298642 76.8273658,46.1524149 C76.0886411,44.5272206 74.7589367,43.3452611 73.1337424,42.4587915 C71.804038,41.8678118 70.1788437,41.5723219 68.5536494,41.8678118 Z M109.626741,25.9113589 C110.365466,26.9455735 110.069976,28.5707677 109.035761,29.1617475 C108.740272,29.4572373 108.297037,29.4572373 107.853802,29.4572373 C103.125964,30.195962 98.3981261,30.7869417 93.8180332,31.6734113 C93.0793085,31.8211563 92.3405838,31.6734113 91.7496041,31.2301765 C91.1586244,30.7869417 90.8631345,29.9004721 91.0108794,29.1617475 C91.1586244,28.2752779 91.7496041,27.5365532 92.6360737,27.3888083 C97.3639116,26.5023387 102.239494,25.9113589 107.115077,25.1726342 C108.001547,25.0248893 109.035761,25.1726342 109.626741,25.9113589 Z" id="Combined-Shape"></path>
                </g>
            </g>
        </g>
    </g>
</svg>