<?xml version="1.0" encoding="UTF-8"?>
<svg width="48px" height="48px" viewBox="0 0 48 48" version="1.1" xmlns="http://www.w3.org/2000/svg" xmlns:xlink="http://www.w3.org/1999/xlink">
    <title>Group 2</title>
    <defs>
        <linearGradient x1="2.28414964%" y1="26.2185492%" x2="91.85825%" y2="70.442618%" id="linearGradient-1">
            <stop stop-color="#1AD4FF" offset="0%"></stop>
            <stop stop-color="#FF307E" offset="100%"></stop>
        </linearGradient>
        <circle id="path-2" cx="24" cy="24" r="24"></circle>
    </defs>
    <g id="Page-1" stroke="none" stroke-width="1" fill="none" fill-rule="evenodd">
        <g id="MacBook-Pro-14&quot;" transform="translate(-72.183584, -36.000000)">
            <g id="Group-4" transform="translate(72.183584, 36.000000)">
                <g id="Group-2" transform="translate(0.000000, 0.000000)">
                    <g id="Group-6">
                        <mask id="mask-3" fill="white">
                            <use xlink:href="#path-2"></use>
                        </mask>
                        <use id="Oval" fill="url(#linearGradient-1)" xlink:href="#path-2"></use>
                    </g>
                    <path d="M36.9049964,17.97559 L39.0498514,20.8777992 L31.0701486,28.5458893 L39.2746817,42.6808025 L36.2979636,44.6354006 L21.0770425,18.3633619 L25.107472,18.2744714 L29.1451486,25.2308893 L36.9049964,17.97559 Z M23.3895638,9.55688925 C27.531237,9.55688925 31.4792071,11.3393791 34.220997,14.4472657 L31.5675157,16.7882114 C29.4970631,14.4414104 26.51636,13.0953763 23.3895638,13.0953763 C17.3787241,13.0953763 12.4886356,17.9855607 12.4886356,23.9964005 C12.4886356,30.0072402 17.3787241,34.8974247 23.3895638,34.8974247 C24.1876048,34.8974247 24.3626322,34.9003643 25.1176167,34.7967397 L26.5173199,38.0958276 C25.4962997,38.3213985 24.4439877,38.4360077 23.3895638,38.4360077 C15.4276801,38.4360077 8.95014862,31.9583802 8.95014862,23.9964005 C8.95014862,16.0344207 15.4276801,9.55688925 23.3895638,9.55688925 Z" id="logo" fill="#181319" fill-rule="nonzero"></path>
                </g>
            </g>
        </g>
    </g>
</svg>